# xmcd CD database file
#
# Track frame offsets:
#	150
#	14765
#	31799
#	47971
#	61201
#	74845
#	87544
#	106120
#	119731
#	136959
#	148680
#	166699
#	185031
#	200195
#	214531
#
# Disc length: 3016 seconds
#
# Revision: 2
# Processed by: cddbd v1.5.2PL0 Copyright (c) Steve Scherf et al.
# Submitted via: CDex 1.70beta2
#
DISCID=ea0bc60f
DTITLE=Mix - Full rulle
DYEAR=2005
DGENRE=Danseband
TTITLE0=St. Hansaften
TTITLE1=Du kom og du gikk
TTITLE2=Alle åran på vårres jord
TTITLE3=Samejenta mi
TTITLE4=Alle vakre drømma
TTITLE5=Kor e dett hjerte
TTITLE6=E ska tenne alle stjernan
TTITLE7=Fjøsrock på festen
TTITLE8=Dansegalla
TTITLE9=Lørdagskveldskos
TTITLE10=Når tonen dør
TTITLE11=Hennes melodi
TTITLE12=Møte i gryningæ
TTITLE13=Evig ungkar
TTITLE14=Don Juan
EXTD=YEAR: 2005
EXTT0=
EXTT1=
EXTT2=
EXTT3=
EXTT4=
EXTT5=
EXTT6=
EXTT7=
EXTT8=
EXTT9=
EXTT10=
EXTT11=
EXTT12=
EXTT13=
EXTT14=
PLAYORDER=
